<svg width="13" height="15" viewBox="0 0 13 15" fill="none" xmlns="http://www.w3.org/2000/svg">
<path d="M6.49902 0.4104C10.089 0.4104 12.999 3.32045 12.999 6.9104C12.999 10.5003 10.089 13.4104 6.49902 13.4104C2.90907 13.4104 -0.000976562 10.5003 -0.000976562 6.9104C-0.000976562 3.32045 2.90907 0.4104 6.49902 0.4104ZM8.79677 4.55805L5.57927 7.77555L4.20127 6.3969C4.14092 6.33651 4.06927 6.28859 3.99041 6.25589C3.91154 6.22319 3.827 6.20635 3.74163 6.20632C3.5692 6.20626 3.40381 6.27469 3.28185 6.39658C3.15988 6.51846 3.09133 6.68379 3.09127 6.85622C3.09121 7.02865 3.15964 7.19403 3.28152 7.316L5.07422 9.1087C5.14062 9.17513 5.21946 9.22783 5.30623 9.26378C5.393 9.29973 5.486 9.31824 5.57992 9.31824C5.67385 9.31824 5.76685 9.29973 5.85362 9.26378C5.94039 9.22783 6.01923 9.17513 6.08562 9.1087L9.71652 5.4778C9.83849 5.35583 9.90701 5.19041 9.90701 5.01793C9.90701 4.84544 9.83849 4.68002 9.71652 4.55805C9.59456 4.43608 9.42914 4.36756 9.25665 4.36756C9.08416 4.36756 8.91874 4.43608 8.79677 4.55805Z" fill="white"/>
</svg>
